<?xml version="1.0" encoding="utf-8"?>
<svg viewBox="3.602 95.522 736.488 209.136" width="736.488px" height="209.136px" xmlns="http://www.w3.org/2000/svg">
  <path d="M 313.953 135.872 L 301.053 135.872 L 301.053 126.272 L 313.953 126.272 L 313.953 120.422 C 313.953 112.222 316.053 106.022 320.253 101.822 C 324.453 97.622 330.603 95.522 338.703 95.522 L 344.403 95.522 L 344.403 104.822 L 338.703 104.822 C 333.903 104.822 330.378 106.097 328.128 108.647 C 325.878 111.197 324.753 115.122 324.753 120.422 L 324.753 126.272 L 342.753 126.272 L 342.753 135.872 L 324.753 135.872 L 324.753 201.122 L 313.953 201.122 Z M 377.999 202.322 C 370.699 202.322 364.874 200.422 360.524 196.622 C 356.174 192.822 353.999 187.722 353.999 181.322 L 353.999 176.522 C 353.999 170.222 356.249 165.172 360.749 161.372 C 365.249 157.572 371.199 155.672 378.599 155.672 L 388.199 155.672 C 391.499 155.672 394.899 156.172 398.399 157.172 C 401.899 158.172 404.899 159.522 407.399 161.222 L 407.399 148.772 C 407.399 144.572 406.099 141.147 403.499 138.497 C 400.899 135.847 397.449 134.522 393.149 134.522 L 381.149 134.522 C 376.849 134.522 373.399 135.522 370.799 137.522 C 368.199 139.522 366.899 142.172 366.899 145.472 L 356.099 145.472 C 356.099 139.372 358.399 134.447 362.999 130.697 C 367.599 126.947 373.649 125.072 381.149 125.072 L 393.149 125.072 C 400.549 125.072 406.524 127.247 411.074 131.597 C 415.624 135.947 417.899 141.672 417.899 148.772 L 417.899 201.122 L 407.699 201.122 L 407.699 190.622 C 405.399 194.222 402.374 197.072 398.624 199.172 C 394.874 201.272 390.999 202.322 386.999 202.322 L 377.999 202.322 Z M 387.299 192.872 C 391.999 192.872 396.199 191.422 399.899 188.522 C 403.599 185.622 406.099 181.772 407.399 176.972 L 407.399 171.422 C 405.399 169.522 402.624 167.997 399.074 166.847 C 395.524 165.697 391.899 165.122 388.199 165.122 L 378.599 165.122 C 374.499 165.122 371.174 166.172 368.624 168.272 C 366.074 170.372 364.799 173.122 364.799 176.522 L 364.799 181.322 C 364.799 184.822 365.999 187.622 368.399 189.722 C 370.799 191.822 373.999 192.872 377.999 192.872 Z M 439.799 126.272 L 450.299 126.272 L 450.299 137.822 C 452.299 134.322 455.324 131.472 459.374 129.272 C 463.424 127.072 467.649 125.972 472.049 125.972 L 478.649 125.972 L 478.649 135.722 L 472.049 135.722 C 465.649 135.722 460.474 137.747 456.524 141.797 C 452.574 145.847 450.599 151.222 450.599 157.922 L 450.599 201.122 L 439.799 201.122 Z M 575.099 125.072 C 581.699 125.072 586.924 127.197 590.774 131.447 C 594.624 135.697 596.549 141.572 596.549 149.072 L 596.549 201.122 L 585.749 201.122 L 585.749 148.772 C 585.749 144.372 584.749 140.922 582.749 138.422 C 580.749 135.922 578.099 134.672 574.799 134.672 L 566.249 134.672 C 561.949 134.672 558.399 136.122 555.599 139.022 C 552.799 141.922 550.999 146.022 550.199 151.322 L 550.199 201.122 L 539.399 201.122 L 539.399 149.672 C 539.399 144.972 538.474 141.297 536.624 138.647 C 534.774 135.997 532.249 134.672 529.049 134.672 L 520.499 134.672 C 516.399 134.672 512.799 136.472 509.699 140.072 C 506.599 143.672 504.649 148.372 503.849 154.172 L 503.849 201.122 L 493.049 201.122 L 493.049 126.272 L 503.549 126.272 L 503.549 137.072 C 505.549 133.272 508.049 130.322 511.049 128.222 C 514.049 126.122 517.199 125.072 520.499 125.072 L 529.349 125.072 C 533.549 125.072 537.174 126.097 540.224 128.147 C 543.274 130.197 545.599 133.172 547.199 137.072 C 549.499 133.072 552.249 130.072 555.449 128.072 C 558.649 126.072 562.149 125.072 565.949 125.072 L 575.099 125.072 Z M 643.342 202.322 C 634.942 202.322 628.192 199.847 623.092 194.897 C 617.992 189.947 615.442 183.372 615.442 175.172 L 615.442 153.722 C 615.442 145.122 617.992 138.197 623.092 132.947 C 628.192 127.697 634.942 125.072 643.342 125.072 L 655.642 125.072 C 663.642 125.072 670.092 127.622 674.992 132.722 C 679.892 137.822 682.342 144.572 682.342 152.972 L 682.342 166.172 L 626.242 166.172 L 626.242 175.172 C 626.242 180.372 627.817 184.597 630.967 187.847 C 634.117 191.097 638.242 192.722 643.342 192.722 L 654.742 192.722 C 659.742 192.722 663.792 191.347 666.892 188.597 C 669.992 185.847 671.542 182.172 671.542 177.572 L 682.042 177.572 C 682.042 184.972 679.542 190.947 674.542 195.497 C 669.542 200.047 662.942 202.322 654.742 202.322 L 643.342 202.322 Z M 671.542 156.872 L 671.542 152.972 C 671.542 147.472 670.092 143.047 667.192 139.697 C 664.292 136.347 660.442 134.672 655.642 134.672 L 643.342 134.672 C 638.242 134.672 634.117 136.422 630.967 139.922 C 627.817 143.422 626.242 148.022 626.242 153.722 L 626.242 156.872 Z M 701.24 126.272 L 711.74 126.272 L 711.74 137.822 C 713.74 134.322 716.765 131.472 720.815 129.272 C 724.865 127.072 729.09 125.972 733.49 125.972 L 740.09 125.972 L 740.09 135.722 L 733.49 135.722 C 727.09 135.722 721.915 137.747 717.965 141.797 C 714.015 145.847 712.04 151.222 712.04 157.922 L 712.04 201.122 L 701.24 201.122 Z M 27.673 276.121 C 20.373 276.141 14.542 274.257 10.182 270.469 C 5.821 266.681 3.632 261.587 3.615 255.187 L 3.602 250.387 C 3.584 244.087 5.82 239.031 10.31 235.218 C 14.799 231.405 20.744 229.489 28.144 229.469 L 37.744 229.442 C 41.044 229.433 44.445 229.924 47.948 230.914 C 51.451 231.904 54.454 233.246 56.959 234.939 L 56.925 222.489 C 56.913 218.289 55.604 214.868 52.996 212.225 C 50.389 209.582 46.935 208.267 42.635 208.278 L 30.635 208.312 C 26.335 208.323 22.888 209.333 20.294 211.34 C 17.699 213.347 16.407 216.001 16.416 219.301 L 5.616 219.331 C 5.599 213.231 7.885 208.299 12.475 204.537 C 17.065 200.774 23.109 198.882 30.609 198.862 L 42.609 198.829 C 50.009 198.808 55.99 200.967 60.552 205.304 C 65.114 209.641 67.405 215.36 67.425 222.46 L 67.569 274.811 L 57.369 274.839 L 57.34 264.339 C 55.05 267.945 52.033 270.804 48.289 272.914 C 44.545 275.024 40.673 276.085 36.673 276.096 L 27.673 276.121 Z M 36.946 266.645 C 41.646 266.632 45.842 265.171 49.534 262.261 C 53.226 259.35 55.716 255.494 57.003 250.69 L 56.987 245.14 C 54.982 243.246 52.203 241.728 48.65 240.588 C 45.096 239.448 41.47 238.883 37.77 238.893 L 28.17 238.92 C 24.07 238.931 20.748 239.99 18.204 242.097 C 15.659 244.204 14.392 246.958 14.401 250.358 L 14.415 255.158 C 14.424 258.658 15.632 261.454 18.038 263.548 C 20.444 265.641 23.647 266.682 27.647 266.671 Z M 89.254 199.9 L 99.754 199.871 L 99.785 210.971 C 102.075 207.364 105.067 204.406 108.761 202.096 C 112.454 199.786 116.151 198.626 119.851 198.615 L 130.051 198.587 C 136.951 198.568 142.532 200.903 146.795 205.591 C 151.058 210.279 153.2 216.423 153.221 224.023 L 153.361 274.574 L 142.561 274.604 L 142.42 223.753 C 142.408 219.153 141.247 215.406 138.939 212.513 C 136.631 209.619 133.577 208.177 129.777 208.188 L 120.178 208.214 C 115.478 208.227 111.208 210.089 107.368 213.8 C 103.528 217.51 101.116 222.267 100.132 228.07 L 100.261 274.721 L 89.461 274.75 Z M 198.512 275.649 C 193.412 275.664 188.859 274.476 184.852 272.087 C 180.845 269.698 177.736 266.357 175.524 262.063 C 173.312 257.769 172.199 252.772 172.183 247.072 L 172.133 229.071 C 172.117 223.071 173.252 217.743 175.539 213.087 C 177.826 208.43 181.066 204.821 185.259 202.26 C 189.452 199.698 194.249 198.41 199.649 198.395 L 210.749 198.364 C 214.149 198.355 217.426 199.146 220.58 200.737 C 223.735 202.329 226.266 204.522 228.173 207.316 L 228.069 169.367 L 238.87 169.337 L 239.159 274.337 L 228.658 274.366 L 228.628 263.266 C 226.338 266.973 223.346 269.956 219.653 272.216 C 215.959 274.476 212.362 275.611 208.862 275.621 L 198.512 275.649 Z M 208.535 266.022 C 211.735 266.013 214.833 264.979 217.827 262.921 C 220.821 260.863 223.264 258.181 225.155 254.876 C 227.046 251.571 228.086 248.168 228.277 244.667 L 228.224 225.766 C 227.51 220.468 225.523 216.174 222.264 212.883 C 219.005 209.592 215.075 207.953 210.475 207.965 L 199.975 207.994 C 194.875 208.008 190.756 209.945 187.616 213.803 C 184.477 217.662 182.916 222.741 182.933 229.041 L 182.983 247.042 C 182.998 252.642 184.486 257.213 187.446 260.755 C 190.406 264.297 194.185 266.061 198.785 266.049 Z M 286.197 304.658 C 279.597 304.676 274.142 302.916 269.833 299.378 C 265.523 295.84 263.11 291.171 262.594 285.373 L 273.394 285.343 C 273.802 288.342 275.184 290.763 277.539 292.606 C 279.894 294.45 282.772 295.367 286.172 295.358 L 297.872 295.325 C 303.072 295.311 307.092 293.575 309.932 290.117 C 312.773 286.659 314.184 281.83 314.167 275.63 L 314.129 261.83 C 311.739 265.437 308.722 268.395 305.079 270.705 C 301.435 273.015 297.813 274.175 294.213 274.185 L 284.613 274.212 C 277.613 274.231 271.932 271.897 267.569 267.209 C 263.206 262.521 261.014 256.377 260.993 248.777 L 260.857 199.426 L 271.657 199.396 L 271.794 249.047 C 271.807 253.747 272.992 257.519 275.35 260.362 C 277.708 263.206 280.787 264.622 284.587 264.612 L 293.887 264.586 C 298.487 264.574 302.732 262.712 306.621 259.001 C 310.511 255.29 312.998 250.633 314.083 245.03 L 313.957 199.28 L 324.757 199.25 L 324.967 275.6 C 324.992 284.7 322.612 291.807 317.826 296.92 C 313.04 302.033 306.397 304.602 297.897 304.625 L 286.197 304.658 Z"
  style="white-space: pre;"/>
</svg>
